<?xml version="1.0" encoding="UTF-8" standalone="no"?>
<!-- Created with Inkscape (http://www.inkscape.org/) -->

<svg
   width="84.666664mm"
   height="79.375008mm"
   viewBox="0 0 84.666667 79.375008"
   version="1.1"
   id="svg1192"
   sodipodi:docname="fedwas.svg"
   inkscape:version="1.1.1 (3bf5ae0d25, 2021-09-20)"
   xmlns:inkscape="http://www.inkscape.org/namespaces/inkscape"
   xmlns:sodipodi="http://sodipodi.sourceforge.net/DTD/sodipodi-0.dtd"
   xmlns="http://www.w3.org/2000/svg"
   xmlns:svg="http://www.w3.org/2000/svg">
  <sodipodi:namedview
     id="namedview12"
     pagecolor="#ffffff"
     bordercolor="#666666"
     borderopacity="1.0"
     inkscape:pageshadow="2"
     inkscape:pageopacity="0.0"
     inkscape:pagecheckerboard="0"
     inkscape:document-units="mm"
     showgrid="false"
     inkscape:zoom="2.6066664"
     inkscape:cx="159.97444"
     inkscape:cy="150.00001"
     inkscape:window-width="1920"
     inkscape:window-height="986"
     inkscape:window-x="-11"
     inkscape:window-y="-11"
     inkscape:window-maximized="1"
     inkscape:current-layer="svg1192" />
  <defs
     id="defs1189" />
  <g
     id="layer1"
     transform="translate(-93.318497,-120.05355)">
    <g
       id="g1292"
       transform="matrix(5.0000003,0,0,5.0000003,-373.27401,-480.21423)">
      <g
         id="g920"
         transform="matrix(0.35277777,0,0,-0.35277777,101.52393,125.652)">
        <path
           d="m 0,0 c -0.376,4.269 -0.729,8.498 -1.107,12.77 0.008,0.275 -0.241,0.376 -0.317,0.156 -0.3,-0.881 -1.388,-0.297 -0.965,0.473 0.735,1.192 2.406,0.99 2.373,-0.788 L 0.731,0.097 C 1.472,4.318 2.226,8.496 2.966,12.721 3.045,12.984 2.831,13.146 2.701,12.952 2.183,12.18 1.283,13.026 1.89,13.66 2.909,14.621 4.471,13.993 3.979,12.285 L 1.462,0.004 C 3.27,3.89 5.08,7.729 6.888,11.618 7.032,11.853 6.867,12.064 6.692,11.911 5.991,11.299 5.341,12.348 6.092,12.804 7.324,13.468 8.67,12.458 7.754,10.935 L 2.143,-0.276 c 2.753,3.285 5.495,6.526 8.248,9.815 0.2,0.189 0.095,0.436 -0.114,0.333 C 9.442,9.462 9.086,10.644 9.929,10.89 11.291,11.213 12.33,9.888 11.05,8.655 L 2.729,-0.723 c 3.509,2.461 6.996,4.882 10.507,7.346 0.242,0.131 0.205,0.397 -0.024,0.352 -0.913,-0.18 -0.95,1.054 -0.073,1.073 1.4,-0.041 2.061,-1.589 0.505,-2.449 L 3.178,-1.306 C 7.205,0.163 11.2,1.599 15.23,3.07 15.497,3.134 15.53,3.401 15.298,3.416 14.37,3.479 14.652,4.68 15.505,4.472 16.846,4.07 17.084,2.404 15.359,1.975 L 3.463,-1.986 c 4.27,0.377 8.5,0.731 12.773,1.109 0.275,-0.008 0.376,0.241 0.155,0.316 -0.88,0.301 -0.296,1.389 0.474,0.966 1.191,-0.735 0.989,-2.406 -0.788,-2.373 L 3.56,-2.715 c 4.222,-0.742 8.401,-1.495 12.627,-2.236 0.263,-0.078 0.425,0.136 0.231,0.266 -0.772,0.518 0.073,1.418 0.707,0.81 0.961,-1.018 0.333,-2.58 -1.375,-2.089 L 3.466,-3.445 c 3.887,-1.809 7.728,-3.618 11.618,-5.427 0.234,-0.145 0.446,0.021 0.293,0.196 -0.613,0.701 0.437,1.35 0.893,0.6 0.664,-1.232 -0.347,-2.578 -1.869,-1.662 L 3.188,-4.126 c 3.285,-2.754 6.527,-5.495 9.816,-8.249 0.189,-0.2 0.436,-0.096 0.334,0.114 -0.41,0.835 0.772,1.191 1.017,0.348 0.323,-1.362 -1.001,-2.401 -2.235,-1.121 l -9.379,8.323 c 2.461,-3.51 4.883,-6.997 7.348,-10.509 0.13,-0.242 0.396,-0.205 0.351,0.024 -0.18,0.912 1.054,0.95 1.073,0.073 -0.04,-1.4 -1.589,-2.06 -2.449,-0.505 L 2.159,-5.162 c 1.469,-4.028 2.906,-8.022 4.377,-12.052 0.064,-0.268 0.33,-0.301 0.346,-0.068 0.062,0.928 1.264,0.645 1.055,-0.207 -0.401,-1.342 -2.068,-1.579 -2.496,0.146 L 1.48,-5.447 c 0.377,-4.27 0.73,-8.5 1.108,-12.773 -0.007,-0.275 0.242,-0.376 0.317,-0.155 0.301,0.88 1.388,0.296 0.966,-0.474 -0.735,-1.192 -2.406,-0.989 -2.374,0.788 L 0.75,-5.547 c -0.741,-4.221 -1.495,-8.399 -2.235,-12.624 -0.079,-0.263 0.136,-0.425 0.266,-0.231 0.518,0.772 1.417,-0.074 0.81,-0.707 -1.018,-0.962 -2.58,-0.333 -2.089,1.374 L 0.02,-5.453 c -1.809,-3.886 -3.618,-7.726 -5.427,-11.615 -0.144,-0.235 0.021,-0.446 0.197,-0.293 0.701,0.612 1.35,-0.437 0.6,-0.893 -1.233,-0.664 -2.579,0.347 -1.662,1.869 l 5.61,11.211 c -2.753,-3.285 -5.494,-6.526 -8.248,-9.814 -0.199,-0.189 -0.095,-0.437 0.115,-0.334 0.835,0.41 1.191,-0.772 0.348,-1.018 -1.363,-0.322 -2.401,1.002 -1.122,2.236 l 8.322,9.377 c -3.51,-2.461 -6.997,-4.882 -10.508,-7.346 -0.242,-0.131 -0.205,-0.396 0.024,-0.352 0.913,0.18 0.951,-1.054 0.073,-1.073 -1.399,0.041 -2.06,1.59 -0.505,2.45 l 10.466,6.904 c -4.027,-1.468 -8.022,-2.905 -12.051,-4.376 -0.268,-0.064 -0.301,-0.33 -0.068,-0.346 0.928,-0.063 0.645,-1.264 -0.208,-1.056 -1.341,0.402 -1.578,2.068 0.147,2.497 l 11.896,3.961 c -4.27,-0.377 -8.501,-0.73 -12.773,-1.109 -0.275,0.008 -0.376,-0.241 -0.156,-0.316 0.88,-0.301 0.296,-1.388 -0.473,-0.966 -1.192,0.735 -0.989,2.406 0.787,2.374 l 12.515,0.746 c -4.221,0.742 -8.399,1.496 -12.624,2.236 -0.263,0.078 -0.425,-0.136 -0.231,-0.266 0.772,-0.518 -0.074,-1.417 -0.708,-0.81 -0.961,1.018 -0.333,2.58 1.375,2.089 l 12.282,-2.518 c -3.886,1.809 -7.726,3.618 -11.615,5.426 -0.235,0.145 -0.446,-0.02 -0.293,-0.196 0.612,-0.701 -0.438,-1.35 -0.893,-0.6 -0.665,1.233 0.346,2.579 1.869,1.662 l 11.211,-5.611 c -3.285,2.753 -6.526,5.495 -9.815,8.248 -0.188,0.2 -0.436,0.096 -0.333,-0.114 0.41,-0.835 -0.772,-1.191 -1.018,-0.348 -0.323,1.362 1.002,2.401 2.235,1.122 l 9.377,-8.321 c -2.46,3.509 -4.881,6.996 -7.345,10.507 -0.131,0.241 -0.397,0.205 -0.352,-0.025 0.18,-0.912 -1.054,-0.95 -1.073,-0.072 0.041,1.399 1.589,2.06 2.449,0.505 l 6.905,-10.467 c -1.469,4.028 -2.905,8.022 -4.377,12.052 -0.063,0.268 -0.33,0.301 -0.345,0.068 -0.063,-0.928 -1.265,-0.645 -1.056,0.207 0.401,1.342 2.068,1.579 2.497,-0.146 z m 0.741,-3.208 c -0.267,0 -0.483,0.216 -0.483,0.483 0,0.267 0.216,0.483 0.483,0.483 0.267,0 0.483,-0.216 0.483,-0.483 0,-0.267 -0.216,-0.483 -0.483,-0.483"
           style="fill:#06038d;fill-opacity:1;fill-rule:evenodd;stroke:none"
           id="path922" />
      </g>
      <g
         id="g924"
         transform="matrix(0.35277777,0,0,-0.35277777,107.99458,135.30082)">
        <path
           d="M 0,0 H 0.847 L 1.503,1.621 3.393,1.612 4.01,0 H 4.859 L 2.669,5.04 H 2.201 Z m -0.945,-0.006 h 0.728 V 5.091 H -0.945 Z M -5.8,0.011 h 1.602 c 3.749,0 3.573,5.08 -0.073,5.08 H -5.8 Z m 0.728,0.635 v 3.688 h 1.062 c 2.36,0 2.393,-3.688 0,-3.688 z M -7.151,0.002 h 0.582 V 5.091 H -7.254 V 1.284 l -3.18,3.807 h -0.527 V 0.002 h 0.686 v 3.633 z m -5.343,0.005 h 0.729 v 5.084 h -0.729 z M 1.809,2.314 2.443,3.772 3.054,2.321 Z"
           style="fill:#06038d;fill-opacity:1;fill-rule:evenodd;stroke:none"
           id="path926" />
      </g>
      <g
         id="g928"
         transform="matrix(0.35277777,0,0,-0.35277777,101.98607,135.30117)">
        <path
           d="M 0,0 H 0.746 V 2.679 L 2.724,5.071 H 1.782 L 0.393,3.335 -0.957,5.071 H -1.728 -1.873 -4.511 V 0.002 h 2.832 v 0.674 h -2.104 v 1.538 h 2.041 v 0.679 h -2.041 v 1.443 h 2.055 V 4.884 L 0,2.65 Z m -10.64,-0.057 c -1.405,0 -2.546,1.16 -2.546,2.586 0,1.424 1.141,2.585 2.546,2.585 0.691,-0.011 1.291,-0.189 1.745,-0.48 v -0.82 c -0.404,0.325 -1.065,0.549 -1.735,0.545 -0.99,0 -1.802,-0.827 -1.802,-1.83 0,-1.005 0.803,-1.83 1.792,-1.83 0.718,0 1.386,0.233 1.745,0.603 V 0.461 c -0.453,-0.344 -1.06,-0.539 -1.745,-0.518 z m -5.295,0 c -1.406,0 -2.547,1.16 -2.547,2.586 0,1.424 1.141,2.585 2.547,2.585 1.407,0 2.548,-1.161 2.548,-2.585 0,-1.426 -1.141,-2.586 -2.548,-2.586 z m 0,0.765 c -0.99,0 -1.793,0.816 -1.793,1.821 0,1.003 0.803,1.82 1.793,1.82 0.991,0 1.794,-0.817 1.794,-1.82 0,-1.005 -0.803,-1.821 -1.794,-1.821 z M -23.03,0.002 h 0.728 v 2.2 h 2.589 v -2.2 h 0.728 v 5.09 h -0.728 V 2.906 h -2.589 v 2.186 h -0.728 z m 14.579,0.004 h 0.728 v 2.023 l 2.106,-2.062 1.062,0.002 -2.663,2.55 2.465,2.558 H -5.771 L -7.723,3.022 v 2.07 h -0.728 z"
           style="fill:#06038d;fill-opacity:1;fill-rule:evenodd;stroke:none"
           id="path930" />
      </g>
    </g>
  </g>
</svg>
