<svg xmlns="http://www.w3.org/2000/svg" version="1.1" viewBox="6.03 23.41 1594.96 1570.55" width="318.7276291558383" height="313.74750995027836"><path d="M 1366.384 252.964 C 1369.513 256.244, 1374.869 261.512, 1378.286 264.672 C 1381.704 267.831, 1379.332 265.148, 1373.016 258.708 C 1366.700 252.269, 1361.344 247, 1361.114 247 C 1360.884 247, 1363.255 249.684, 1366.384 252.964 M 1316.854 291.750 C 1318.833 294.485, 1325.406 300.903, 1334 308.494 C 1336.475 310.680, 1333.332 307.189, 1327.016 300.735 C 1320.700 294.281, 1315.382 289, 1315.198 289 C 1315.014 289, 1315.759 290.238, 1316.854 291.750 M 1242.481 311.250 L 1232.500 321.500 1242.750 311.519 C 1252.270 302.248, 1253.455 301, 1252.731 301 C 1252.583 301, 1247.971 305.613, 1242.481 311.250 M 1252.500 356 C 1257.979 361.500, 1262.687 366, 1262.962 366 C 1263.237 366, 1258.979 361.500, 1253.500 356 C 1248.021 350.500, 1243.313 346, 1243.038 346 C 1242.763 346, 1247.021 350.500, 1252.500 356 M 1303.544 370.047 C 1309.020 375.848, 1313.705 380.443, 1313.955 380.259 C 1314.206 380.074, 1309.725 375.328, 1303.999 369.711 L 1293.587 359.500 1303.544 370.047 M 1551.784 815.738 C 1554.689 815.941, 1559.189 815.939, 1561.784 815.734 C 1564.378 815.528, 1562 815.363, 1556.500 815.365 C 1551 815.368, 1548.878 815.536, 1551.784 815.738 M 1538 860.417 C 1538 872.614, 1537.679 876.963, 1536.750 877.338 C 1536.003 877.639, 1536.205 877.874, 1537.250 877.921 C 1538.851 877.993, 1539 876.554, 1539 861 C 1539 851.650, 1538.775 844, 1538.500 844 C 1538.225 844, 1538 851.388, 1538 860.417 M 1473 864.468 L 1473 882.937 1461.250 883.253 L 1449.500 883.570 1461.750 883.785 L 1474 884 1474 865 C 1474 854.550, 1473.775 846, 1473.500 846 C 1473.225 846, 1473 854.311, 1473 864.468 M 116.306 883.747 C 122.800 883.922, 133.150 883.921, 139.306 883.746 C 145.463 883.571, 140.150 883.428, 127.500 883.429 C 114.850 883.429, 109.813 883.573, 116.306 883.747 M 113.007 979.711 C 111.827 982.865, 108.129 993.602, 104.789 1003.571 L 98.717 1021.696 81.609 1022.345 C 72.199 1022.702, 61.182 1022.995, 57.128 1022.997 C 50.383 1023, 49.872 1023.141, 51.128 1024.654 C 51.882 1025.563, 60.473 1032.559, 70.219 1040.199 C 79.964 1047.839, 88.189 1054.497, 88.497 1054.995 C 88.804 1055.492, 85.407 1066.986, 80.948 1080.536 C 76.489 1094.087, 73.074 1105.407, 73.359 1105.692 C 73.741 1106.075, 102.645 1085.179, 114.500 1075.949 C 115.065 1075.510, 124.575 1081.903, 136.358 1090.645 C 147.829 1099.155, 157.427 1105.906, 157.686 1105.647 C 157.946 1105.388, 154.788 1094.899, 150.670 1082.338 C 146.551 1069.777, 143.028 1058.414, 142.841 1057.088 C 142.549 1055.019, 144.790 1052.883, 158.579 1042.088 C 181.803 1023.906, 181.496 1024.163, 180.819 1023.485 C 180.478 1023.144, 169.455 1022.603, 156.323 1022.283 L 132.448 1021.700 124.523 998.285 C 120.164 985.406, 116.272 974.668, 115.875 974.423 C 115.478 974.177, 114.187 976.557, 113.007 979.711 M 1490.590 982.165 C 1489.688 984.549, 1485.861 995.500, 1482.086 1006.500 L 1475.222 1026.500 1451.192 1027 C 1437.976 1027.275, 1426.924 1027.739, 1426.633 1028.031 C 1426.342 1028.323, 1435.040 1035.429, 1445.962 1043.822 L 1465.820 1059.081 1463.558 1066.290 C 1462.314 1070.256, 1458.711 1081.520, 1455.553 1091.322 C 1452.395 1101.124, 1450.048 1109.381, 1450.337 1109.671 C 1450.627 1109.961, 1460.169 1103.291, 1471.540 1094.849 C 1482.912 1086.407, 1492.419 1079.577, 1492.666 1079.672 C 1492.913 1079.767, 1502.339 1086.680, 1513.612 1095.035 C 1524.885 1103.389, 1534.302 1110.031, 1534.539 1109.795 C 1534.776 1109.558, 1531.226 1098.145, 1526.651 1084.432 L 1518.332 1059.500 1538.486 1044 C 1555.182 1031.160, 1558.285 1028.388, 1556.570 1027.850 C 1555.432 1027.492, 1544.368 1027.155, 1531.984 1027.100 L 1509.468 1027 1501.614 1003.250 C 1497.295 990.188, 1493.416 979.124, 1492.995 978.665 C 1492.575 978.206, 1491.492 979.781, 1490.590 982.165" stroke="none" fill="#c68627" fill-rule="evenodd"/><path d="M 900.895 466.169 C 901.394 467.451, 904.812 476.150, 908.490 485.500 C 917.275 507.830, 931.341 545.355, 940.683 571.383 L 948.179 592.266 941.839 598.709 C 930.256 610.483, 883.756 654.474, 866 670.457 C 856.375 679.121, 848.376 686.728, 848.223 687.362 C 848.071 687.996, 857.635 693.155, 869.477 698.827 L 891.006 709.139 910.168 693.320 C 944.702 664.808, 998 617.947, 998 616.095 C 998 615.759, 995.585 608.738, 992.634 600.492 C 977.121 557.149, 966.823 532.121, 949.660 496.047 L 939.454 474.595 922.530 469.834 C 898.868 463.177, 899.791 463.333, 900.895 466.169 M 412.745 684.125 C 410.824 687.631, 402.917 702.980, 395.175 718.233 L 381.096 745.965 383.195 751.015 L 385.293 756.064 383.132 774.282 C 379.410 805.652, 378.882 816.432, 379.176 855.019 L 379.462 892.539 370.250 904.776 C 361.380 916.559, 352.725 932.107, 351.433 938.579 C 350.097 945.272, 368.081 994.029, 383.495 1025.500 C 412.337 1084.390, 452.201 1134.553, 506.969 1180.874 C 523.480 1194.839, 526.201 1196.615, 532.410 1197.483 L 537.320 1198.170 515.910 1176.073 C 504.134 1163.919, 494.349 1153.526, 494.163 1152.978 C 493.450 1150.863, 512.857 1127, 515.291 1127 C 515.866 1127, 523.798 1131.888, 532.918 1137.863 C 557.786 1154.154, 567.158 1159.759, 606.714 1181.989 C 612.881 1185.455, 620.458 1190.547, 623.552 1193.304 L 629.176 1198.316 643.338 1197.108 C 679.843 1193.993, 750 1185.732, 750 1184.548 C 750 1180.925, 759.732 1123.433, 762.027 1113.500 C 764.147 1104.325, 764.061 1104.162, 751.250 1092.981 C 733.444 1077.441, 705 1050.925, 705 1049.866 C 705 1047.675, 717.602 988.642, 722.539 967.706 C 727.874 945.079, 743.189 886.263, 744.953 881.623 C 745.741 879.550, 746.925 879.027, 753.187 877.987 C 757.209 877.319, 761.016 876.486, 761.647 876.136 C 762.355 875.744, 757.812 869.564, 749.785 860 C 732.648 839.582, 717.172 820.232, 701.796 800 L 689.256 783.500 674.378 776.629 C 612.362 747.990, 567.382 719.849, 534.824 689.322 L 529.148 684 505.824 683.995 C 473.281 683.989, 455.552 682.810, 420.869 678.346 L 416.238 677.750 412.745 684.125 M 1005 716.938 C 959.396 727.222, 915.892 738.411, 876.585 749.967 C 863.432 753.833, 852.496 757.171, 852.283 757.384 C 850.530 759.137, 833.988 860.322, 835.249 861.582 C 836.143 862.476, 877.597 853.057, 910.725 844.433 L 927.950 839.949 995.073 906.924 L 1062.196 973.899 1052.618 1001.964 C 1043.694 1028.113, 1043.193 1029.995, 1045.270 1029.550 C 1046.497 1029.288, 1053.125 1027.891, 1060 1026.447 C 1066.875 1025.003, 1073.013 1023.299, 1073.641 1022.661 C 1074.268 1022.022, 1078.839 1010.025, 1083.799 996 C 1095.277 963.540, 1101.695 946.382, 1119.658 900.131 C 1127.640 879.578, 1133.962 861.961, 1133.706 860.982 C 1133.450 860.004, 1127.561 849.554, 1120.619 837.761 L 1107.998 816.319 1069.458 783.575 C 1041.570 759.880, 1031.046 750.370, 1031.380 749.165 C 1031.633 748.249, 1033.274 741.274, 1035.026 733.665 L 1038.212 719.830 1035.255 716.165 C 1033.226 713.650, 1031.389 712.436, 1029.399 712.295 C 1027.805 712.182, 1016.825 714.272, 1005 716.938 M 458.102 858.627 C 454.766 871.044, 449.820 893.121, 448.050 903.500 C 445.843 916.436, 441 953.520, 441 957.477 C 441 960.274, 452.203 979.209, 465.831 999.444 C 476.095 1014.684, 493.379 1037.759, 508.194 1056 L 517.533 1067.500 531.517 1068.602 C 550.312 1070.083, 607 1071.384, 607 1070.334 C 607 1069.874, 607.886 1061.742, 608.970 1052.263 C 611.142 1033.261, 614.351 1013.027, 619.606 985.204 C 621.506 975.141, 622.756 966.415, 622.384 965.813 C 622.012 965.211, 615.418 956.344, 607.731 946.109 C 594.001 927.828, 576.022 901.308, 558.410 873.360 L 549.500 859.220 544.500 858.619 C 541.750 858.288, 532.525 858.007, 524 857.995 C 509.272 857.973, 483.521 856.804, 466.822 855.400 L 459.143 854.754 458.102 858.627 M 1009.814 1119.135 C 1006.898 1126.667, 1004.855 1130.548, 1003.501 1131.129 C 996.146 1134.289, 912.966 1153.173, 879 1159.395 C 845.368 1165.555, 844.843 1165.611, 841.131 1163.418 C 839.443 1162.421, 837.864 1161.806, 837.623 1162.053 C 837.179 1162.505, 834.637 1179.833, 833.513 1190.071 L 832.901 1195.641 851.168 1205.508 L 869.436 1215.376 879.468 1213.551 C 897.608 1210.252, 893.749 1209.205, 919.994 1224.540 L 943.452 1238.245 958.976 1235.090 C 983.468 1230.112, 1015.963 1221.860, 1017.992 1220.103 C 1020.894 1217.590, 1060 1147.865, 1060 1145.204 C 1060 1143.475, 1017.284 1108, 1015.202 1108 C 1014.609 1108, 1012.184 1113.011, 1009.814 1119.135" stroke="none" fill="#7c201f" fill-rule="evenodd"/><path d="M 759 24.084 C 747.725 24.590, 734.900 25.341, 730.500 25.752 L 722.500 26.500 722.735 33.500 C 724.476 85.247, 728.466 177.681, 728.985 178.281 C 729.357 178.710, 736.375 178.710, 744.581 178.281 L 759.500 177.500 759.449 173.500 C 759.421 171.300, 759.069 160.241, 758.667 148.924 L 757.936 128.349 778.718 127.155 C 801.179 125.865, 809.627 124.466, 818.398 120.588 C 825.718 117.350, 833.885 109.135, 836.380 102.500 C 840.015 92.829, 839.436 58.169, 835.449 46.848 C 831.874 36.696, 824.108 29.654, 812.500 26.039 C 803.820 23.336, 788.312 22.769, 759 24.084 M 875.511 26.250 C 875.195 27.177, 858.330 144.343, 854.511 172.143 C 854.078 175.293, 854.314 175.861, 856.255 176.343 C 859.846 177.233, 951.279 190.054, 951.618 189.715 C 952.174 189.159, 954.992 170.569, 954.996 167.431 L 955 164.363 922 159.455 C 891.154 154.867, 889 154.414, 889.003 152.523 C 889.007 149.100, 893.780 117.886, 894.393 117.274 C 894.710 116.957, 908.522 118.594, 925.087 120.913 C 941.652 123.232, 955.409 124.924, 955.660 124.674 C 956.288 124.045, 958.960 106.190, 958.982 102.470 L 959 99.440 928.877 94.982 C 909.731 92.148, 898.584 90.079, 898.286 89.304 C 897.832 88.119, 902.462 56.205, 903.195 55.472 C 903.396 55.270, 918.325 57.181, 936.370 59.717 C 962.224 63.352, 969.344 64.061, 969.961 63.063 C 970.392 62.366, 971.283 57.680, 971.941 52.648 C 972.600 47.617, 973.362 42.713, 973.636 41.751 C 974.509 38.686, 976.614 39.097, 913.142 29.951 C 894.245 27.228, 878.143 25, 877.360 25 C 876.578 25, 875.745 25.563, 875.511 26.250 M 660 35.097 C 645.714 38.764, 642 40.059, 642 41.374 C 642 42.099, 647.850 66.265, 655 95.077 C 662.150 123.889, 667.990 149.045, 667.978 150.981 C 667.943 156.550, 664.716 162.411, 659.834 165.770 C 652.064 171.116, 635.703 174.970, 627.012 173.502 C 622.499 172.740, 616.788 168.429, 614.556 164.102 C 612.831 160.755, 608.503 144.857, 596.017 96 C 590.466 74.275, 585.747 55.983, 585.532 55.351 C 585.024 53.860, 557.028 60.762, 556.343 62.548 C 555.857 63.814, 580.642 162.996, 583.337 170.571 C 591.412 193.271, 609.806 203.576, 636.282 200.232 C 664.393 196.682, 686.416 184.899, 695.049 168.792 C 698.058 163.176, 698.463 161.479, 698.812 153 C 699.181 144.027, 698.837 142.003, 692.605 116.500 C 688.976 101.650, 682.770 76.787, 678.814 61.250 C 670.627 29.096, 672.615 31.858, 660 35.097 M 758.631 50.705 L 754.761 51.135 755.406 70.817 C 755.760 81.643, 756.309 93.092, 756.625 96.261 L 757.199 102.021 769.849 101.427 C 796.347 100.183, 800.569 99.137, 805.438 92.614 C 807.283 90.144, 807.489 88.516, 807.394 77.176 C 807.262 61.415, 806.127 56.962, 801.300 53.277 L 797.663 50.500 780.081 50.388 C 770.412 50.326, 760.759 50.469, 758.631 50.705 M 1019.108 52.250 C 1009.905 76.831, 970.356 187.495, 969.485 191.104 C 968.870 193.654, 969.136 193.808, 982.013 198.354 C 989.250 200.909, 995.744 203, 996.444 203 C 997.193 203, 1000.968 194.082, 1005.609 181.352 C 1009.949 169.446, 1013.951 159.086, 1014.502 158.331 C 1015.325 157.203, 1017.726 157.766, 1027.957 161.484 C 1034.807 163.974, 1040.717 166.346, 1041.092 166.755 C 1041.467 167.165, 1045.505 180.236, 1050.065 195.802 C 1054.625 211.368, 1058.838 224.701, 1059.428 225.431 C 1060.700 227.007, 1092.027 238.306, 1092.848 237.485 C 1093.301 237.032, 1083.376 201.281, 1076.584 178.905 L 1075.189 174.311 1081.733 173.105 C 1090.371 171.513, 1094.552 169.255, 1100.364 163.042 C 1106.050 156.963, 1110.236 148.269, 1115.889 130.793 C 1122.542 110.226, 1121.343 99.837, 1111.022 88.640 C 1106.722 83.975, 1097.048 77.807, 1088.500 74.280 C 1079.843 70.709, 1022.395 50, 1021.144 50 C 1020.488 50, 1019.571 51.013, 1019.108 52.250 M 494 86.494 C 474.525 93.004, 452.063 104.375, 443.898 111.856 C 435.498 119.553, 431.862 126.190, 431.234 134.975 C 430.612 143.666, 432.582 150.434, 439.781 164.333 C 445.973 176.290, 452.315 183.160, 458.831 184.970 C 465.931 186.942, 476.946 186.090, 497.361 181.989 C 520.134 177.415, 522.763 177.239, 526.334 180.048 C 529.589 182.609, 535.967 195.338, 536.688 200.713 C 537.173 204.329, 536.839 205.172, 533.420 208.957 C 526.818 216.265, 506.763 224.937, 484.750 230.003 C 479.387 231.237, 475.022 232.754, 475.048 233.373 C 475.075 233.993, 476.120 239, 477.370 244.500 C 480.053 256.295, 479.822 256.169, 493.793 253.441 C 525.970 247.157, 558.808 228.653, 566.035 212.732 C 568.459 207.393, 568.638 195.982, 566.404 189.285 C 560.742 172.313, 549.768 155.513, 542.282 152.357 C 536.248 149.813, 520.651 150.631, 501.431 154.500 C 491.867 156.425, 481.598 158, 478.610 158 C 473.712 158, 472.908 157.681, 470.429 154.750 C 464.006 147.155, 460.452 135.012, 463.356 130.580 C 467.250 124.637, 482.127 117.185, 505.500 109.468 C 512.759 107.071, 518.622 104.583, 518.776 103.833 C 518.928 103.095, 517.577 97.993, 515.775 92.495 C 512.856 83.596, 512.223 82.472, 509.998 82.241 C 508.624 82.098, 501.425 84.012, 494 86.494 M 1032.038 108.513 C 1027.448 121.445, 1023.874 132.179, 1024.096 132.366 C 1024.631 132.816, 1045.395 140.109, 1055.503 143.397 C 1070.380 148.235, 1075.144 146.768, 1080.356 135.742 C 1085.716 124.401, 1088.312 115.461, 1087.734 110.329 C 1086.824 102.262, 1083.427 100.083, 1056.627 90.383 C 1048.447 87.422, 1041.446 85, 1041.068 85 C 1040.691 85, 1036.628 95.581, 1032.038 108.513 M 1181.371 201.707 C 1157.792 235.646, 1138.363 263.952, 1138.196 264.608 C 1137.860 265.926, 1214.310 320, 1216.508 320 C 1218.166 320, 1231.229 301.191, 1230.694 299.575 C 1230.498 298.984, 1218.900 290.493, 1204.919 280.706 C 1190.939 270.919, 1179.372 262.348, 1179.216 261.658 C 1178.918 260.345, 1188.374 246.351, 1226.805 191.236 C 1239.562 172.940, 1250 157.813, 1250 157.619 C 1250 157.167, 1225.375 140, 1224.727 140 C 1224.460 140, 1204.950 167.768, 1181.371 201.707 M 322.690 186.069 C 316.811 191.097, 312 195.453, 312 195.748 C 312 196.456, 315.785 200.868, 353.274 243.853 C 370.750 263.891, 384.878 280.455, 384.671 280.662 C 384.464 280.869, 358.136 271.130, 326.163 259.019 C 294.191 246.909, 267.532 237, 266.920 237 C 266.309 237, 264.389 238.006, 262.654 239.236 C 257.887 242.615, 235.997 261.970, 236.019 262.786 C 236.050 263.974, 334.970 377.897, 336 377.932 C 336.749 377.958, 356.382 359.982, 357.251 358.475 C 357.753 357.606, 346.831 344.421, 324.416 318.836 C 285.332 274.225, 283.719 272.290, 286.508 273.376 C 291.591 275.356, 349.468 297.325, 375.356 307.100 L 404.211 317.997 409.875 313.248 C 425.631 300.038, 434 292.492, 434 291.495 C 434 289.862, 427.747 282.505, 379.612 227.500 C 355.546 200, 335.299 177.371, 334.619 177.213 C 333.938 177.056, 328.570 181.041, 322.690 186.069 M 1279.744 273.986 C 1250.185 303.828, 1226 328.558, 1226 328.941 C 1226 329.324, 1230.162 333.601, 1235.250 338.446 C 1240.338 343.290, 1256.071 358.784, 1270.214 372.877 L 1295.928 398.500 1303.964 390.523 C 1308.384 386.136, 1312 381.751, 1312 380.777 C 1312 378.793, 1296.935 362.641, 1278.042 344.371 L 1265.500 332.242 1274.565 322.428 C 1279.551 317.031, 1285.757 310.812, 1288.357 308.608 L 1293.084 304.601 1314.800 326.301 C 1326.744 338.235, 1336.972 348, 1337.529 348 C 1338.086 348, 1342.582 343.933, 1347.521 338.961 L 1356.500 329.923 1350.430 324.211 C 1347.092 321.070, 1338.670 313.194, 1331.714 306.709 C 1324.758 300.224, 1317.397 292.881, 1315.357 290.391 L 1311.647 285.863 1324.322 273.188 L 1336.997 260.513 1360.999 284.499 L 1385.001 308.486 1394.558 298.929 L 1404.115 289.372 1392.928 278.936 C 1386.775 273.196, 1370.884 257.526, 1357.615 244.114 L 1333.489 219.727 1279.744 273.986 M 172.735 340.168 C 168.728 345.081, 153.378 366.426, 152 369 C 151.309 370.291, 152.439 372.575, 156.747 378.597 C 176.967 406.865, 243.417 498.723, 244.389 499.750 C 245.318 500.732, 247.574 498.206, 254.864 488.030 C 260.807 479.733, 263.878 474.599, 263.385 473.780 C 262.961 473.076, 258.967 467.550, 254.510 461.500 C 250.053 455.450, 246.061 449.934, 245.640 449.243 C 244.847 447.943, 248.032 443.234, 268.291 415.750 C 274.271 407.637, 279.746 401, 280.459 401 C 281.171 401, 286.048 402.322, 291.296 403.937 C 296.544 405.553, 303.108 407.548, 305.882 408.372 L 310.927 409.871 319.964 397.442 C 324.934 390.607, 329 384.658, 329 384.224 C 329 383.631, 188.763 339.104, 178.186 336.338 C 176.806 335.977, 175.277 337.051, 172.735 340.168 M 1445.500 360.630 C 1440.550 361.996, 1420.750 367.401, 1401.500 372.641 C 1349.877 386.694, 1301.552 400.128, 1301.128 400.545 C 1300.580 401.084, 1317.824 427, 1318.729 426.997 C 1319.856 426.994, 1336.471 422.460, 1343.836 420.146 L 1350.172 418.156 1365.737 441.828 C 1374.298 454.848, 1381.491 466.210, 1381.723 467.078 C 1381.965 467.988, 1378.085 473.874, 1372.561 480.973 L 1362.979 493.289 1365.643 497.895 C 1370.146 505.680, 1380.323 520.060, 1381.127 519.772 C 1381.545 519.623, 1400.270 495.875, 1422.738 467 C 1445.207 438.125, 1467.253 409.812, 1471.730 404.082 L 1479.870 393.663 1467.831 375.832 C 1461.210 366.024, 1455.502 358.033, 1455.147 358.073 C 1454.791 358.113, 1450.450 359.263, 1445.500 360.630 M 204.410 394.750 C 215.130 408.913, 224.937 421.765, 226.205 423.312 L 228.510 426.123 240.857 408.997 C 247.647 399.577, 253.045 391.748, 252.852 391.599 C 252.192 391.091, 186.503 368.963, 185.710 368.982 C 185.276 368.992, 193.691 380.587, 204.410 394.750 M 1425.500 395.889 C 1415.050 399.033, 1399.864 403.607, 1391.754 406.053 C 1383.643 408.499, 1377.006 410.809, 1377.004 411.186 C 1376.997 412.426, 1399.047 445.500, 1399.880 445.500 C 1400.327 445.500, 1410.277 433.800, 1421.991 419.500 C 1433.705 405.200, 1443.969 392.712, 1444.799 391.750 C 1445.630 390.788, 1445.903 390.039, 1445.405 390.086 C 1444.907 390.134, 1435.950 392.745, 1425.500 395.889 M 98.965 458.566 C 95.023 466.027, 91.956 472.254, 92.149 472.405 C 92.342 472.555, 123.057 488.077, 160.405 506.897 C 212.099 532.947, 228.517 540.804, 229.177 539.808 C 231.309 536.592, 243.177 513.851, 242.857 513.595 C 242.031 512.934, 107.153 445, 106.667 445 C 106.373 445, 102.907 451.105, 98.965 458.566 M 1487.500 484.417 C 1470.439 490.088, 1420.265 510.482, 1413.232 514.604 C 1403.667 520.210, 1395.948 531.473, 1394.511 541.922 C 1393.563 548.810, 1395.565 564.448, 1398.565 573.599 C 1402.098 584.374, 1413.600 607.498, 1421.064 618.832 C 1426.767 627.490, 1427.401 628.117, 1429.855 627.508 C 1437.444 625.625, 1490 604.264, 1490 603.062 C 1490 601.892, 1480.812 578.588, 1479.990 577.673 C 1479.581 577.219, 1469.971 580.481, 1458.634 584.923 C 1447.297 589.366, 1437.612 593, 1437.110 593 C 1435.924 593, 1427.767 576.213, 1425.085 568.252 C 1422.679 561.111, 1422.374 552.104, 1424.405 548.200 C 1427.757 541.758, 1430.934 540.080, 1467.500 525.430 C 1499.032 512.797, 1504.026 511.766, 1511.076 516.432 C 1513.293 517.899, 1516.434 521.191, 1518.055 523.748 C 1522.160 530.221, 1528.144 546.028, 1532.535 562 C 1534.576 569.425, 1536.416 575.794, 1536.622 576.153 C 1536.829 576.512, 1542.423 575.409, 1549.053 573.702 L 1561.108 570.599 1560.495 566.549 C 1557.441 546.392, 1546.325 516.053, 1537.059 502.586 C 1532.046 495.300, 1521.681 486.399, 1515.530 484.097 C 1507.767 481.193, 1496.823 481.317, 1487.500 484.417 M 85.692 523.972 C 72.833 528.996, 63.888 540.166, 56.413 560.533 C 49.204 580.173, 37.021 618.421, 37.754 619.115 C 38.621 619.937, 177.514 665.750, 180.500 666.199 C 182.265 666.465, 183.238 664.267, 188.776 647.500 C 199.534 614.927, 204.756 596.767, 205.475 589.428 C 207.188 571.927, 199.593 556.388, 185.945 549.472 C 183.389 548.177, 164.412 541.466, 143.774 534.559 C 108.135 522.631, 105.854 522.002, 98.375 522.047 C 93.139 522.078, 88.889 522.723, 85.692 523.972 M 92.071 555.752 C 86.371 558.658, 83.263 563.738, 78.118 578.561 C 75.456 586.227, 72.992 593.700, 72.641 595.167 L 72.003 597.835 100.752 607.360 C 141.582 620.888, 164.061 628, 165.988 628 C 167.255 628, 168.810 624.367, 172.506 612.773 C 178.559 593.787, 179.001 587.312, 174.634 581.587 C 171.058 576.899, 169.251 576.132, 135.755 565.093 C 97.875 552.609, 98.127 552.663, 92.071 555.752 M 1550.500 624.601 C 1479.405 637.171, 1465.133 639.967, 1459.638 642.397 C 1448.203 647.454, 1438.664 659.667, 1435.954 672.720 C 1434.060 681.843, 1435.235 702.610, 1438.302 714.221 C 1442.168 728.854, 1446.116 736.300, 1454.408 744.595 C 1465.565 755.756, 1475.670 758.490, 1495 755.578 C 1518.836 751.987, 1597.572 737.770, 1598.476 736.893 C 1599.478 735.923, 1595.512 709.150, 1594.173 707.843 C 1593.803 707.481, 1586.075 708.460, 1577 710.018 C 1478.269 726.969, 1480.102 726.752, 1473.292 722.336 C 1465.900 717.543, 1461.677 706.343, 1461.667 691.500 C 1461.657 677.622, 1465.484 672.411, 1477.725 669.636 C 1485.675 667.833, 1531.320 659.629, 1561.967 654.495 C 1573.774 652.517, 1583.641 650.692, 1583.893 650.440 C 1584.363 649.971, 1580.220 623.737, 1579.297 621.330 C 1578.626 619.583, 1579.341 619.502, 1550.500 624.601 M 24.667 672.730 C 23.769 674.183, 21.639 700.972, 22.364 701.697 C 23.089 702.422, 50.691 705.383, 104.847 710.545 C 129.613 712.905, 133.828 713.532, 131.847 714.558 C 130.556 715.226, 106.099 725.450, 77.499 737.278 C 48.898 749.106, 23.248 759.849, 20.499 761.152 L 15.500 763.521 14.315 774.011 C 13.663 779.780, 12.988 788.768, 12.815 793.984 L 12.500 803.468 18 804.167 C 32.675 806.031, 163.041 818.292, 163.483 817.850 C 164.073 817.261, 167.288 788.946, 166.816 788.501 C 166.642 788.336, 143.325 785.902, 115 783.091 C 86.675 780.280, 61.537 777.647, 59.138 777.240 L 54.776 776.500 63.638 772.784 C 68.512 770.740, 93.200 760.563, 118.500 750.168 C 177.419 725.961, 172.292 728.508, 173.187 723 C 174.265 716.375, 176.874 687.564, 176.437 687.115 C 176.231 686.903, 144.211 683.672, 105.281 679.934 C 66.352 676.197, 32.396 672.872, 29.824 672.545 C 27.253 672.218, 24.932 672.302, 24.667 672.730 M 1448 833.494 L 1448 883 1460.500 883 L 1473 883 1473.002 871.250 C 1473.004 864.788, 1473.300 849.712, 1473.662 837.750 L 1474.319 816 1493.659 816 L 1513 816 1513 847 L 1513 878 1523.250 877.986 C 1538.929 877.965, 1538 878.712, 1538.003 866.133 C 1538.004 860.285, 1538.300 846.388, 1538.661 835.250 L 1539.317 815 1557.159 815 L 1575 815 1575.007 842.250 C 1575.011 857.237, 1575.301 872.538, 1575.652 876.250 L 1576.289 883 1588.641 883 L 1600.994 883 1600.747 833.750 L 1600.500 784.500 1524.250 784.244 L 1448 783.988 1448 833.494 M 6.673 852.661 C 5.825 853.508, 5.822 861.653, 6.664 874.377 L 7.318 884.254 87.409 883.532 C 131.459 883.134, 167.850 882.479, 168.279 882.076 C 168.707 881.673, 168.932 874.853, 168.779 866.921 L 168.500 852.500 87.923 852.244 C 43.605 852.103, 7.042 852.291, 6.673 852.661 M 221.866 1193.297 C 213.092 1199.703, 154.967 1243.089, 153.122 1244.610 C 152.810 1244.868, 159.444 1254.401, 165.535 1262.447 C 166.966 1264.337, 167.179 1264.273, 172.755 1260.260 C 175.915 1257.985, 181.570 1253.976, 185.322 1251.350 L 192.143 1246.575 195.539 1250.537 C 197.407 1252.717, 199.164 1255.175, 199.444 1256 C 199.724 1256.825, 197.517 1265.783, 194.539 1275.907 L 189.124 1294.313 196.598 1304.064 C 200.709 1309.428, 204.690 1314.328, 205.444 1314.954 C 206.878 1316.144, 206.639 1316.798, 215.940 1286.311 L 219.048 1276.122 222.774 1277.685 C 227.505 1279.670, 235.565 1279.626, 240.440 1277.590 C 248.410 1274.259, 264.008 1261.548, 267.558 1255.491 C 269.519 1252.145, 269.996 1249.963, 269.978 1244.412 C 269.952 1236.135, 268.297 1232.057, 260.320 1220.614 C 254.524 1212.300, 233.959 1185, 233.491 1185 C 233.348 1185, 228.117 1188.734, 221.866 1193.297 M 1374.376 1209.343 C 1371.558 1210.689, 1366.814 1214.229, 1363.835 1217.209 C 1358.311 1222.733, 1330 1258.467, 1330 1259.916 C 1330 1260.516, 1394.073 1310.523, 1404.096 1317.745 C 1405.620 1318.843, 1406.674 1317.875, 1413.009 1309.556 C 1416.961 1304.368, 1419.921 1299.681, 1419.587 1299.141 C 1419.254 1298.602, 1414.260 1294.464, 1408.491 1289.946 C 1402.721 1285.428, 1398 1281.514, 1398 1281.249 C 1398 1280.985, 1399.577 1278.619, 1401.505 1275.993 L 1405.010 1271.218 1424.464 1270.489 L 1443.918 1269.759 1452.052 1259.130 L 1460.186 1248.500 1439.843 1248.230 L 1419.500 1247.961 1419.500 1240.645 C 1419.500 1234.150, 1419.165 1232.845, 1416.509 1229.013 C 1413.251 1224.311, 1403.536 1216.092, 1395.276 1211.050 C 1387.994 1206.604, 1381.260 1206.054, 1374.376 1209.343 M 220.691 1224.995 C 214.811 1229.422, 210.005 1233.596, 210.011 1234.272 C 210.023 1235.759, 217.528 1245.881, 222.539 1251.169 C 224.584 1253.328, 227.120 1255, 228.348 1255 C 230.645 1255, 238.610 1250.013, 243.250 1245.670 C 247.442 1241.746, 246.934 1238.159, 240.980 1229.663 C 238.219 1225.724, 234.930 1221.250, 233.671 1219.723 L 231.382 1216.946 220.691 1224.995 M 1373.981 1235.899 C 1368.485 1241.677, 1360.801 1251.912, 1361.174 1252.958 C 1361.555 1254.023, 1380.935 1269.016, 1381.869 1268.967 C 1382.766 1268.920, 1394.259 1253.265, 1395.705 1250.120 C 1396.368 1248.679, 1396.930 1246.747, 1396.955 1245.827 C 1397.062 1241.864, 1385.090 1232, 1380.174 1232 C 1378.588 1232, 1376.350 1233.409, 1373.981 1235.899 M 273.500 1317.682 C 255.900 1336.191, 241.368 1351.864, 241.206 1352.513 C 240.892 1353.776, 286.140 1397.314, 288.248 1397.776 C 288.940 1397.928, 292.387 1395.146, 295.906 1391.594 L 302.306 1385.137 286.920 1370.213 L 271.534 1355.289 278.393 1348.183 L 285.253 1341.077 298.690 1353.789 C 306.080 1360.780, 312.662 1366.624, 313.317 1366.776 C 313.971 1366.928, 317.430 1364.077, 321.003 1360.441 L 327.500 1353.831 313.205 1340.165 L 298.910 1326.500 304.885 1320.600 L 310.861 1314.700 326.153 1329.353 L 341.445 1344.005 348.222 1337.279 C 351.950 1333.580, 355 1330.249, 355 1329.877 C 355 1328.809, 308.168 1284.527, 306.761 1284.265 C 306.068 1284.136, 291.100 1299.173, 273.500 1317.682 M 1277.443 1312.260 C 1268.098 1319.724, 1259 1328.522, 1259 1330.096 C 1259 1332.468, 1297.346 1421.286, 1298.530 1421.658 C 1299.064 1421.826, 1303.474 1418.259, 1308.330 1413.731 L 1317.161 1405.500 1313.580 1397.695 C 1311.611 1393.402, 1310 1389.268, 1310 1388.509 C 1310 1387.324, 1331.059 1367.723, 1334.367 1365.829 C 1335.011 1365.461, 1339.115 1367.334, 1343.486 1369.991 L 1351.433 1374.824 1355.967 1370.995 C 1358.460 1368.889, 1362.525 1365.062, 1365 1362.490 L 1369.500 1357.815 1367.127 1356.157 C 1362.928 1353.225, 1283.557 1309, 1282.510 1309.010 C 1281.954 1309.015, 1279.674 1310.478, 1277.443 1312.260 M 1285.524 1337.125 C 1285.931 1338.431, 1289.590 1346.454, 1293.655 1354.953 L 1301.047 1370.406 1308.982 1362.518 C 1316.020 1355.521, 1316.724 1354.496, 1315.208 1353.449 C 1313.860 1352.516, 1289.303 1337.403, 1285.643 1335.253 C 1285.171 1334.976, 1285.118 1335.818, 1285.524 1337.125 M 385.294 1360.693 C 379.002 1368.772, 337.167 1428.950, 334.908 1433.171 C 333.637 1435.546, 331.310 1433.615, 358 1452.335 C 384.359 1470.822, 386.681 1472.315, 387.895 1471.565 C 388.451 1471.221, 391.165 1467.734, 393.926 1463.815 L 398.946 1456.689 391.723 1451.656 C 372.841 1438.500, 365 1432.875, 365 1432.487 C 365 1432.254, 374.637 1418.213, 386.416 1401.284 C 403.339 1376.962, 407.594 1370.216, 406.696 1369.133 C 405.434 1367.614, 391.783 1358.238, 389.626 1357.410 C 388.830 1357.104, 387.021 1358.475, 385.294 1360.693 M 1200.500 1373.607 C 1162.540 1398.444, 1151 1406.249, 1151 1407.088 C 1151 1408.871, 1160.021 1422, 1161.243 1421.994 C 1161.935 1421.991, 1167.303 1418.881, 1173.174 1415.082 C 1182.978 1408.737, 1183.968 1408.310, 1185.326 1409.837 C 1186.138 1410.752, 1195.621 1424.888, 1206.398 1441.250 C 1217.176 1457.612, 1226.392 1471, 1226.879 1471 C 1227.366 1471, 1232.074 1468.178, 1237.342 1464.729 L 1246.919 1458.458 1226.050 1426.479 L 1205.180 1394.500 1217.081 1386.728 L 1228.982 1378.956 1223.741 1371.001 C 1220.858 1366.625, 1218.050 1363.066, 1217.500 1363.092 C 1216.950 1363.117, 1209.300 1367.849, 1200.500 1373.607 M 475.644 1415.251 C 471.912 1421.246, 433 1496.411, 433 1497.626 C 433 1498.131, 437.698 1500.881, 443.440 1503.736 L 453.881 1508.929 455.812 1505.714 C 456.874 1503.946, 464.611 1489.225, 473.006 1473 C 481.400 1456.775, 490.479 1439.234, 493.180 1434.020 C 498.899 1422.979, 499.522 1424.375, 485.772 1417.418 L 477.045 1413.002 475.644 1415.251 M 1105.500 1428.359 C 1092.885 1432.488, 1080.014 1438.583, 1073.298 1443.608 C 1062.818 1451.450, 1061.066 1460.057, 1067.051 1474.314 C 1071.327 1484.501, 1076.433 1490.301, 1082.659 1492.044 C 1086.937 1493.242, 1089.015 1493.096, 1104.143 1490.534 C 1119.748 1487.891, 1121.058 1487.808, 1123.346 1489.307 C 1126.783 1491.559, 1129.644 1499.291, 1128.207 1502.445 C 1126.616 1505.938, 1114.426 1511.551, 1101.237 1514.864 C 1095.042 1516.420, 1089.693 1517.973, 1089.351 1518.316 C 1089.008 1518.659, 1089.265 1521.765, 1089.921 1525.219 C 1091.957 1535.939, 1091.425 1535.323, 1098.019 1534.577 C 1118.869 1532.218, 1147.648 1517.508, 1152.008 1506.980 C 1152.720 1505.261, 1153.068 1501.219, 1152.844 1497.268 C 1152.532 1491.757, 1151.655 1488.874, 1148.125 1481.750 C 1140.833 1467.033, 1137.029 1465.471, 1116.061 1468.577 C 1109.152 1469.600, 1101.025 1470.451, 1098 1470.469 L 1092.500 1470.500 1090.075 1465.607 C 1087.882 1461.183, 1087.787 1460.474, 1089.075 1458.209 C 1091.007 1454.813, 1099.234 1450.715, 1112.826 1446.379 C 1119.056 1444.392, 1124.359 1442.228, 1124.612 1441.569 C 1124.865 1440.911, 1124.026 1437.026, 1122.748 1432.936 C 1119.909 1423.849, 1119.563 1423.757, 1105.500 1428.359 M 559.830 1454.750 C 557.521 1457.245, 538.216 1481.814, 511.097 1516.771 C 505.435 1524.069, 501.028 1530.630, 501.304 1531.349 C 501.580 1532.068, 506.012 1534.151, 511.153 1535.978 C 516.294 1537.805, 521.020 1539.489, 521.655 1539.720 C 522.718 1540.108, 531.585 1530.351, 533.854 1526.296 C 534.782 1524.637, 535.088 1524.635, 539.667 1526.245 C 542.325 1527.180, 549.819 1529.815, 556.321 1532.102 L 568.142 1536.258 567.450 1546.022 L 566.758 1555.785 578.341 1559.598 C 584.711 1561.694, 590.168 1563.165, 590.467 1562.866 C 590.766 1562.567, 591.224 1546.388, 591.484 1526.911 C 591.744 1507.435, 592.080 1484.977, 592.229 1477.005 L 592.500 1462.510 578.500 1457.332 C 570.800 1454.484, 564.022 1452.119, 563.437 1452.077 C 562.852 1452.034, 561.229 1453.237, 559.830 1454.750 M 559.128 1491.815 C 553.424 1499.688, 548.699 1506.828, 548.628 1507.681 C 548.538 1508.770, 551.304 1510.252, 557.888 1512.645 C 563.052 1514.522, 567.483 1515.851, 567.735 1515.598 C 568.379 1514.954, 570.184 1484.562, 569.809 1480.686 C 569.517 1477.675, 568.932 1478.285, 559.128 1491.815 M 656.598 1482.708 C 655.460 1486.325, 641.939 1572.563, 642.215 1574.445 C 642.442 1575.997, 643.815 1576.626, 649 1577.555 C 662.640 1579.998, 662.926 1580.007, 663.975 1578.046 C 664.513 1577.041, 666.764 1565.032, 668.978 1551.360 C 671.191 1537.687, 673.287 1525.150, 673.636 1523.500 L 674.270 1520.500 675.250 1523 C 675.789 1524.375, 681.093 1538.702, 687.036 1554.838 C 692.979 1570.973, 698.126 1584.460, 698.474 1584.807 C 699.431 1585.764, 726.399 1589.803, 727.182 1589.107 C 727.764 1588.589, 741.285 1506.046, 742.185 1497.513 L 742.500 1494.527 734.500 1493.338 C 723.883 1491.761, 720.016 1491.739, 719.558 1493.250 C 719.350 1493.938, 717.048 1507.933, 714.442 1524.352 C 710.257 1550.724, 709.567 1553.872, 708.524 1551.352 C 707.874 1549.783, 702.696 1534.775, 697.016 1518 C 691.337 1501.225, 686.198 1487.009, 685.595 1486.410 C 684.993 1485.810, 679.100 1484.533, 672.500 1483.572 C 665.900 1482.610, 659.749 1481.620, 658.831 1481.370 C 657.829 1481.098, 656.936 1481.633, 656.598 1482.708 M 923.791 1486.390 C 908.001 1489.247, 894.835 1491.832, 894.533 1492.134 C 894.231 1492.435, 897.683 1513.727, 902.205 1539.447 L 910.425 1586.212 914.463 1585.757 C 922.290 1584.875, 973.924 1575.665, 975.093 1574.942 C 976.004 1574.380, 975.991 1572.372, 975.040 1566.254 C 974.359 1561.878, 973.466 1557.754, 973.056 1557.090 C 972.489 1556.174, 967.407 1556.721, 951.915 1559.368 C 940.697 1561.285, 931.377 1562.710, 931.202 1562.536 C 930.715 1562.049, 928.041 1543.626, 928.405 1543.262 C 928.581 1543.086, 936.774 1541.550, 946.612 1539.849 C 956.451 1538.148, 964.901 1536.388, 965.390 1535.938 C 966.166 1535.225, 963.753 1518.419, 962.727 1517.394 C 962.526 1517.193, 953.774 1518.523, 943.277 1520.350 L 924.193 1523.671 922.968 1515.797 C 922.295 1511.466, 921.979 1507.688, 922.267 1507.400 C 922.555 1507.112, 931.725 1505.263, 942.645 1503.292 C 953.565 1501.321, 962.643 1499.593, 962.818 1499.453 C 962.993 1499.312, 962.384 1495.103, 961.464 1490.098 L 959.792 1481 956.146 1481.098 C 954.141 1481.152, 939.581 1483.533, 923.791 1486.390 M 808.813 1496.470 C 797.905 1499.474, 791.403 1504.369, 787.089 1512.826 C 785.315 1516.302, 785.179 1518.732, 785.341 1544.048 C 785.504 1569.529, 785.666 1571.824, 787.596 1576.011 C 794.672 1591.356, 813.375 1596.877, 843.500 1592.512 C 849 1591.715, 853.837 1591.049, 854.250 1591.032 C 855.444 1590.981, 854.944 1585.052, 853.152 1578 C 851.551 1571.699, 851.408 1571.508, 848.500 1571.767 C 823.068 1574.029, 816.287 1573.732, 812.754 1570.199 C 810.861 1568.306, 810.575 1566.387, 809.786 1550.302 C 808.737 1528.934, 809.263 1523.030, 812.560 1519.111 C 814.633 1516.647, 815.858 1516.178, 821.237 1515.785 C 824.682 1515.533, 832.675 1515.649, 839 1516.043 C 846.090 1516.483, 850.734 1516.389, 851.110 1515.796 C 851.802 1514.706, 854.270 1497.928, 853.803 1497.485 C 853.637 1497.327, 849.450 1496.704, 844.500 1496.102 C 832.686 1494.663, 814.699 1494.848, 808.813 1496.470" stroke="none" fill="#0c2c7b" fill-rule="evenodd"/><path d="M 732 340.052 C 689.709 342.606, 644.423 354.108, 606.859 371.837 L 596.219 376.859 585.045 395.179 C 571.106 418.036, 551.658 456.832, 542.275 480.500 C 524.576 525.146, 514.032 562.085, 501.458 623.494 L 496.135 649.488 498.735 652.994 C 502.929 658.648, 532.565 687.808, 544.319 697.846 C 573.384 722.668, 604.829 742.541, 650.500 764.951 C 700.495 789.483, 714.436 795.677, 716.330 794.199 C 716.974 793.697, 724.925 787.512, 734 780.455 C 760.720 759.675, 793.167 733.486, 820.012 711.029 C 833.810 699.487, 845.686 689.696, 846.403 689.272 C 847.120 688.847, 847.885 687.984, 848.103 687.354 C 848.322 686.724, 856.375 679.120, 866 670.456 C 883.753 654.476, 930.252 610.486, 941.839 598.709 L 948.179 592.266 940.679 571.383 C 910.647 487.755, 889.485 435.751, 861.311 376.336 L 850.801 354.173 839.651 351.106 C 801.916 340.727, 771.883 337.643, 732 340.052 M 1014 376.938 C 993.996 384.696, 966 396.895, 966 397.853 C 966 398.207, 968.023 404.573, 970.495 411.999 C 972.968 419.424, 978.069 437.388, 981.832 451.918 L 988.674 478.335 1005.087 487.503 C 1023.801 497.956, 1043.040 509.675, 1063.941 523.355 L 1078.381 532.806 1083.941 530.267 C 1100.835 522.551, 1121.985 513.739, 1132.782 509.918 C 1144.579 505.743, 1145.045 505.471, 1144.555 503.036 C 1138.557 473.172, 1128.531 436.228, 1123.616 425.882 C 1122.250 423.006, 1118.785 420.219, 1106.699 412.274 C 1086.487 398.989, 1077.462 393.772, 1052.500 380.943 L 1031.500 370.150 1014 376.938 M 458.363 483.288 C 441.844 500.377, 426.324 518.587, 423.350 524.369 C 420.042 530.801, 410.784 555.863, 402.927 579.657 C 397.542 595.964, 396.799 599.053, 397.931 600.417 C 399.283 602.045, 411.295 611.255, 416.181 614.409 L 418.861 616.139 435.297 594.319 C 444.337 582.319, 454.650 568.675, 458.214 564 C 464.061 556.331, 465.262 553.887, 470.493 539 C 473.682 529.925, 479.375 514.252, 483.145 504.172 C 486.915 494.091, 490 485.494, 490 485.066 C 490 483.986, 472.826 471, 471.398 471 C 470.761 471, 464.895 476.529, 458.363 483.288 M 1165.879 563.783 C 1149.671 572.506, 1112.933 589.739, 1085.500 601.488 C 1071.750 607.377, 1060.130 612.544, 1059.677 612.971 C 1059.224 613.397, 1056.862 625.043, 1054.429 638.849 C 1049.849 664.826, 1047.312 677.546, 1041.434 704 C 1039.540 712.525, 1036.609 725.800, 1034.921 733.500 C 1033.233 741.200, 1031.643 748.248, 1031.387 749.163 C 1031.050 750.365, 1041.645 759.980, 1069.710 783.938 C 1091.045 802.150, 1114.125 821.968, 1121 827.977 C 1127.875 833.986, 1134.053 838.925, 1134.730 838.951 C 1136.581 839.025, 1153.953 831.949, 1178 821.327 C 1199.167 811.978, 1255.878 784.383, 1259.203 781.815 C 1260.458 780.845, 1261.833 775.118, 1264.437 760 C 1270.705 723.615, 1273.301 698.570, 1274.958 658.500 C 1275.743 639.522, 1275.666 637.344, 1274.163 635.877 C 1273.248 634.984, 1265.266 628.009, 1256.423 620.377 C 1238.511 604.915, 1218.994 589.555, 1193.379 570.760 L 1176.258 558.197 1165.879 563.783 M 357.212 683.765 C 351.343 691.616, 343.384 708.080, 341.505 716.256 C 339.305 725.835, 336.135 747.109, 334.465 763.500 C 332.774 780.103, 332.524 831.691, 334.047 849.500 C 336.179 874.416, 342.397 911.010, 348.072 932.043 C 350.084 939.498, 350.441 940.150, 351.312 937.961 C 355.748 926.808, 362.279 915.366, 370.250 904.776 L 379.462 892.539 379.176 855.019 C 378.882 816.461, 379.411 805.644, 383.119 774.385 C 385.235 756.551, 385.239 756.194, 383.393 751.385 C 382.361 748.698, 381.495 746.275, 381.467 746 C 381.439 745.725, 380.463 743.397, 379.298 740.826 C 372.846 726.588, 366.736 703.788, 363.466 681.750 C 363.160 679.688, 362.592 678.007, 362.205 678.015 C 361.817 678.023, 359.571 680.610, 357.212 683.765 M 919.500 842.119 C 905.237 846.068, 858.960 857.167, 842.500 860.586 C 813.473 866.616, 775.910 873.969, 769.051 874.964 C 765.448 875.487, 758.753 876.670, 754.174 877.593 C 747.096 879.020, 745.711 879.629, 744.940 881.657 C 743.187 886.269, 727.854 945.164, 722.539 967.706 C 717.602 988.642, 705 1047.675, 705 1049.866 C 705 1051.740, 754.629 1096.672, 777.200 1115.233 C 789.867 1125.649, 829.568 1155.701, 838.476 1161.615 C 844.992 1165.942, 842.545 1166.075, 878.944 1159.399 C 913.818 1153.003, 999.006 1133.633, 1003.949 1130.977 C 1006.795 1129.447, 1030.114 1067.999, 1050.123 1009.302 L 1062.193 973.896 995.097 906.948 C 958.194 870.127, 927.663 840.041, 927.251 840.090 C 926.838 840.140, 923.350 841.053, 919.500 842.119 M 458.102 858.627 C 454.766 871.044, 449.820 893.121, 448.050 903.500 C 445.843 916.436, 441 953.520, 441 957.477 C 441 960.274, 452.203 979.209, 465.831 999.444 C 476.095 1014.684, 493.379 1037.759, 508.194 1056 L 517.533 1067.500 531.517 1068.602 C 550.312 1070.083, 607 1071.384, 607 1070.334 C 607 1069.874, 607.886 1061.742, 608.970 1052.263 C 611.142 1033.261, 614.351 1013.027, 619.606 985.204 C 621.506 975.141, 622.756 966.415, 622.384 965.813 C 622.012 965.211, 615.418 956.344, 607.731 946.109 C 594.001 927.828, 576.022 901.308, 558.410 873.360 L 549.500 859.220 544.500 858.619 C 541.750 858.288, 532.525 858.007, 524 857.995 C 509.272 857.973, 483.521 856.804, 466.822 855.400 L 459.143 854.754 458.102 858.627 M 1232.627 895.021 C 1223.414 900.864, 1182.292 924.842, 1163.500 935.329 L 1144.500 945.932 1140.145 961.216 C 1136.727 973.210, 1127.876 1003.174, 1117.394 1038.232 C 1117.003 1039.540, 1118.912 1041.280, 1125.188 1045.338 C 1129.760 1048.294, 1142.665 1056.661, 1153.867 1063.932 C 1165.069 1071.203, 1174.857 1077.392, 1175.619 1077.684 C 1177.334 1078.342, 1190.184 1070.905, 1227.286 1047.781 L 1256.071 1029.841 1262.131 1017.228 C 1271.319 998.102, 1280.500 975.506, 1287.304 955.271 L 1293.434 937.043 1289.967 933.416 C 1282.007 925.090, 1241.121 892, 1238.793 892 C 1238.022 892, 1235.248 893.360, 1232.627 895.021 M 1158 1120.606 C 1155.525 1122.025, 1143.651 1128.345, 1131.613 1134.649 L 1109.725 1146.110 1085.947 1169.197 L 1062.168 1192.284 1066.817 1201.192 C 1071.128 1209.450, 1071.650 1210.054, 1073.983 1209.470 C 1083.538 1207.081, 1120.146 1191.376, 1126.500 1186.941 C 1128.700 1185.406, 1140.802 1173.810, 1153.394 1161.173 L 1176.288 1138.196 1171.527 1129.348 C 1164.468 1116.225, 1165.017 1116.580, 1158 1120.606 M 507.780 1134.250 C 499.981 1142.996, 493.703 1151.621, 494.163 1152.957 C 494.934 1155.193, 534.851 1195.577, 544.671 1204.055 C 559.403 1216.773, 577.990 1230.470, 585.885 1234.425 C 600.639 1241.816, 653.178 1261.182, 681.240 1269.572 C 691.217 1272.555, 693.479 1272.940, 694.534 1271.833 C 696.813 1269.446, 706.974 1256.514, 706.987 1255.986 C 706.994 1255.703, 699.249 1250.528, 689.775 1244.486 C 668.441 1230.879, 648.606 1216.088, 635.500 1204.013 C 621.173 1190.812, 617.120 1187.735, 605.686 1181.375 C 571.804 1162.527, 557.626 1154.050, 532.918 1137.863 C 523.798 1131.888, 515.866 1127, 515.291 1127 C 514.716 1127, 511.336 1130.263, 507.780 1134.250 M 887.500 1212.074 C 885.850 1212.571, 880 1213.673, 874.500 1214.523 C 869 1215.374, 853.250 1217.995, 839.500 1220.348 L 814.500 1224.626 814.641 1238.063 C 814.746 1247.989, 815.352 1253.902, 816.960 1260.690 L 819.138 1269.879 836.319 1275.461 C 845.769 1278.531, 861.875 1283.155, 872.112 1285.735 L 890.723 1290.428 910.419 1285.609 C 935.566 1279.455, 944.093 1276.846, 945.120 1274.988 C 945.572 1274.170, 948.248 1267.234, 951.066 1259.576 L 956.190 1245.652 954.100 1244.076 C 952.950 1243.209, 949.870 1241.391, 947.255 1240.035 C 944.640 1238.679, 932.222 1231.592, 919.661 1224.285 C 896.048 1210.550, 894.509 1209.966, 887.500 1212.074" stroke="none" fill="#ea0f1c" fill-rule="evenodd"/></svg>